<svg width="18" height="19" viewBox="0 0 18 19" fill="none" xmlns="http://www.w3.org/2000/svg">
<g clip-path="url(#clip0_102_1136)">
<path d="M17.9904 9.67232C17.9904 8.91766 17.9292 8.36696 17.7967 7.79587H9.1792V11.202H14.2375C14.1355 12.0485 13.5848 13.3233 12.361 14.1799L12.3438 14.2939L15.0685 16.4047L15.2573 16.4235C16.991 14.8224 17.9904 12.4666 17.9904 9.67232Z" fill="#4285F4"/>
<path d="M9.17933 18.6467C11.6574 18.6467 13.7379 17.8308 15.2574 16.4235L12.3611 14.1799C11.5861 14.7204 10.5459 15.0977 9.17933 15.0977C6.75218 15.0977 4.69217 13.4966 3.95783 11.2836L3.85019 11.2928L1.01703 13.4854L0.97998 13.5884C2.48929 16.5866 5.58954 18.6467 9.17933 18.6467Z" fill="#34A853"/>
<path d="M3.95783 11.2836C3.76407 10.7126 3.65193 10.1006 3.65193 9.46836C3.65193 8.83604 3.76407 8.22417 3.94763 7.65308L3.9425 7.53145L1.07383 5.30362L0.979977 5.34826C0.357916 6.59246 0.000976562 7.98963 0.000976562 9.46836C0.000976562 10.9471 0.357916 12.3442 0.979977 13.5884L3.95783 11.2836Z" fill="#FBBC05"/>
<path d="M9.17933 3.83895C10.9028 3.83895 12.0654 4.58341 12.7283 5.20554L15.3186 2.67638C13.7277 1.19765 11.6574 0.290012 9.17933 0.290012C5.58954 0.290012 2.48929 2.35003 0.97998 5.34826L3.94764 7.65308C4.69217 5.44008 6.75218 3.83895 9.17933 3.83895Z" fill="#EB4335"/>
</g>
<defs>
<clipPath id="clip0_102_1136">
<rect width="18" height="18.42" fill="white" transform="translate(0 0.290012)"/>
</clipPath>
</defs>
</svg>
