<svg xmlns="http://www.w3.org/2000/svg" xmlns:xlink="http://www.w3.org/1999/xlink" viewBox="0 0 814.11 186.68"><defs><style>.cls-1{fill:url(#linear-gradient);}.cls-2{fill:url(#linear-gradient-2);}.cls-3{fill:#2a49ce;}</style><linearGradient id="linear-gradient" x1="215.86" y1="72.7" x2="0" y2="72.7" gradientUnits="userSpaceOnUse"><stop offset="0" stop-color="#00004a"/><stop offset="0.01" stop-color="#030452"/><stop offset="0.08" stop-color="#0d1773"/><stop offset="0.16" stop-color="#162690"/><stop offset="0.25" stop-color="#1d33a7"/><stop offset="0.35" stop-color="#233db8"/><stop offset="0.46" stop-color="#2744c5"/><stop offset="0.62" stop-color="#2948cc"/><stop offset="1" stop-color="#2a49ce"/></linearGradient><linearGradient id="linear-gradient-2" x1="49.13" y1="113.99" x2="265" y2="113.99" xlink:href="#linear-gradient"/></defs><g id="Layer_2" data-name="Layer 2"><g id="Layer_1-2" data-name="Layer 1"><path class="cls-1" d="M215.86,65.83A31,31,0,0,1,201.55,92l-2.21,1.28L153.61,66.9,132.52,54.71l0,0,0,0L66.05,93.07h0a3.84,3.84,0,0,0-.4.21h0l0,0-2.2,1.27,0,0,0,0a31.23,31.23,0,0,0-11,40.37A31.55,31.55,0,0,0,61,145.4L14.79,118.73h0A29.61,29.61,0,0,1,0,93.73V93A29.59,29.59,0,0,1,14.79,68l0-.07,0,.07L130.66,1.06,132.5,0l1.83,1.06h0L203.51,41h0A30.9,30.9,0,0,1,215.86,65.83Z"/><path class="cls-2" d="M265,93.32v.41a29.58,29.58,0,0,1-14.79,25l0,.07,0-.07-115.87,66.9-1.84,1.06-1.83-1.05h0L61.49,145.69h0a31.12,31.12,0,0,1,1.94-51h0l2.23-1.29,45.73,26.4L132.48,132l0,0,0,0L199,93.62l0,0,.06,0,.34-.18h0l0,0,2.14-1.22,0,0a31.25,31.25,0,0,0,11-40.38A31.42,31.42,0,0,0,204,41.29L250.21,68h0A29.61,29.61,0,0,1,265,93v.37Z"/><path class="cls-3" d="M356.09,52A7.55,7.55,0,0,1,364,59.92v5.57a12.42,12.42,0,0,1-12.4,12.4h-2.16a18.52,18.52,0,0,0-18.33,18.33v55.16a12.81,12.81,0,0,1-12.93,13.12h-4.32a8.37,8.37,0,0,1-8.44-8.63V52h25.69v4a43.68,43.68,0,0,1,18.33-4Z"/><path class="cls-3" d="M431.38,52a44.16,44.16,0,0,1,44,44.21v23.53H423.83A12.44,12.44,0,0,1,411.25,107v-5.75a7.59,7.59,0,0,1,7.55-7.55h30.55a18.21,18.21,0,0,0-18-15.63h-7A26.42,26.42,0,0,0,398,104.3V112a26.34,26.34,0,0,0,26.41,26.41h7a18.54,18.54,0,0,0,14.73-7.36l-.18.17c2.16-3.41,5.22-4.31,9.35-2.69l4.31,2.34c4.49,2.69,7,6.82,7,11.32a11.58,11.58,0,0,1-3.78,8.8,77.17,77.17,0,0,1-7.9,6.83,43.67,43.67,0,0,1-23.54,6.65h-7a52.48,52.48,0,0,1-20.3-4.14h.18A49.16,49.16,0,0,1,387.54,149a56,56,0,0,1-11.32-16.53,57.61,57.61,0,0,1-4-20.48V104.3a57.4,57.4,0,0,1,4-20.3,56,56,0,0,1,11.32-16.53,49,49,0,0,1,16.71-11.32h-.18A52.48,52.48,0,0,1,424.37,52Z"/><path class="cls-3" d="M490.86,8.89h25.69V151.2a13.12,13.12,0,0,1-13.12,13.3h-3.77c-5.21,0-8.8-3.78-8.8-9Z"/><path class="cls-3" d="M590.58,52a44.45,44.45,0,0,1,31.81,13.3,43.74,43.74,0,0,1,13.29,31.8v22.11A43.44,43.44,0,0,1,622.39,151a43.91,43.91,0,0,1-31.81,13.48H576.93A45.41,45.41,0,0,1,532,119.22V97.11A45.1,45.1,0,0,1,576.93,52Zm19.23,45.1a19.21,19.21,0,0,0-19.23-19H576.93a19.32,19.32,0,0,0-19.23,19v22.11a19.36,19.36,0,0,0,19.23,19.22h13.65a19.25,19.25,0,0,0,19.23-19.22Z"/><path class="cls-3" d="M764.16,114.18l22.1-62.35h27.85L776.74,153.9a16,16,0,0,1-15.27,10.6c-4.32,0-7.19-2.16-8.45-6.29v.18L727.86,91.9l-23.53,62a17,17,0,0,1-15.46,10.6,9,9,0,0,1-8.26-6.29v.18l-39-106.56h27.68l22.28,62.35,22.28-62.35H741.7Z"/></g></g></svg>